<?xml version="1.0" encoding="iso-8859-1"?>
<!-- Generator: Adobe Illustrator 16.0.0, SVG Export Plug-In . SVG Version: 6.00 Build 0)  -->
<!DOCTYPE svg PUBLIC "-//W3C//DTD SVG 1.1//EN" "http://www.w3.org/Graphics/SVG/1.1/DTD/svg11.dtd">
<svg version="1.1" id="Capa_1" xmlns="http://www.w3.org/2000/svg" xmlns:xlink="http://www.w3.org/1999/xlink" x="0px" y="0px"
	 width="486.293px" height="486.292px" viewBox="0 0 486.293 486.292" style="enable-background:new 0 0 486.293 486.292;"
	 xml:space="preserve">
<g>
	<g>
		<path d="M80.128,219.934C35.874,219.934,0,255.809,0,300.063s35.875,80.129,80.128,80.129c44.255,0,80.13-35.875,80.13-80.129
			S124.383,219.934,80.128,219.934z M80.128,344.58c-24.546,0-44.516-19.97-44.516-44.517s19.97-44.517,44.516-44.517
			c24.547,0,44.517,19.97,44.517,44.517S104.675,344.58,80.128,344.58z"/>
		<path d="M406.162,219.934c-9.043,0-17.725,1.52-25.834,4.281l-22.039-34.332c4.744-3.493,9.6-6.639,14.439-9.18v-39.416
			l-35.395,15.954l-32.83-51.138l-64.153-0.002l-11.788,9.813l53.814,17.525l24.184,37.672l-63.847,29.902l-62.425-41.176
			L80.128,143.885v25.598l73.591,56.386l45.561,94.606h88.359l22.822-82.911c0,0,9.184-11.88,22.484-25.354l18.709,29.142
			c-15.754,14.631-25.621,35.514-25.621,58.711c0,44.254,35.875,80.129,80.129,80.129c44.256,0,80.131-35.875,80.131-80.129
			S450.418,219.934,406.162,219.934z M406.162,344.58c-24.545,0-44.516-19.97-44.516-44.517c0-10.533,3.684-20.217,9.822-27.847
			l23.666,36.863l28.096-18.035l-22.562-35.147c1.803-0.224,3.633-0.351,5.494-0.351c24.547,0,44.518,19.97,44.518,44.517
			S430.709,344.58,406.162,344.58z"/>
	</g>
</g>
<g>
</g>
<g>
</g>
<g>
</g>
<g>
</g>
<g>
</g>
<g>
</g>
<g>
</g>
<g>
</g>
<g>
</g>
<g>
</g>
<g>
</g>
<g>
</g>
<g>
</g>
<g>
</g>
<g>
</g>
</svg>
