<svg xmlns="http://www.w3.org/2000/svg" xmlns:xlink="http://www.w3.org/1999/xlink" style="display:none"><symbol id="999" viewbox="0 0 4252 4252"><image width="611" height="380" xlink:href="999.png" transform="translate(1820 1935.97)" overflow="visible"/></symbol><symbol id="arrow-point-to-right" viewbox="0 0 451.846 451.847"><path d="M345.441 248.292L151.154 442.573c-12.359 12.365-32.397 12.365-44.75 0-12.354-12.354-12.354-32.391 0-44.744L278.318 225.92 106.409 54.017c-12.354-12.359-12.354-32.394 0-44.748 12.354-12.359 32.391-12.359 44.75 0l194.287 194.284c6.177 6.18 9.262 14.271 9.262 22.366 0 8.099-3.091 16.196-9.267 22.373z"/></symbol><symbol id="calendar" viewbox="0 0 488.152 488.152"><path d="M177.854 269.311c0-6.115-4.96-11.069-11.08-11.069h-38.665c-6.113 0-11.074 4.954-11.074 11.069v38.66c0 6.123 4.961 11.079 11.074 11.079h38.665c6.12 0 11.08-4.956 11.08-11.079v-38.66zM274.483 269.311c0-6.115-4.961-11.069-11.069-11.069h-38.67c-6.113 0-11.074 4.954-11.074 11.069v38.66c0 6.123 4.961 11.079 11.074 11.079h38.67c6.108 0 11.069-4.956 11.069-11.079v-38.66zM371.117 269.311c0-6.115-4.961-11.069-11.074-11.069h-38.665c-6.12 0-11.08 4.954-11.08 11.069v38.66c0 6.123 4.96 11.079 11.08 11.079h38.665c6.113 0 11.074-4.956 11.074-11.079v-38.66zM177.854 365.95c0-6.125-4.96-11.075-11.08-11.075h-38.665c-6.113 0-11.074 4.95-11.074 11.075v38.653c0 6.119 4.961 11.074 11.074 11.074h38.665c6.12 0 11.08-4.956 11.08-11.074V365.95zM274.483 365.95c0-6.125-4.961-11.075-11.069-11.075h-38.67c-6.113 0-11.074 4.95-11.074 11.075v38.653c0 6.119 4.961 11.074 11.074 11.074h38.67c6.108 0 11.069-4.956 11.069-11.074V365.95zM371.117 365.95c0-6.125-4.961-11.075-11.069-11.075h-38.67c-6.12 0-11.08 4.95-11.08 11.075v38.653c0 6.119 4.96 11.074 11.08 11.074h38.67c6.108 0 11.069-4.956 11.069-11.074V365.95z"/><path d="M440.254 54.354v59.05c0 26.69-21.652 48.198-48.338 48.198h-30.493c-26.688 0-48.627-21.508-48.627-48.198V54.142h-137.44v59.262c0 26.69-21.938 48.198-48.622 48.198H96.235c-26.685 0-48.336-21.508-48.336-48.198v-59.05c-23.323.703-42.488 20.002-42.488 43.723v346.061c0 24.167 19.588 44.015 43.755 44.015h389.82c24.131 0 43.755-19.889 43.755-44.015V98.077c0-23.721-19.164-43.02-42.487-43.723zm-14.163 368.234c0 10.444-8.468 18.917-18.916 18.917H80.144c-10.448 0-18.916-8.473-18.916-18.917V243.835c0-10.448 8.467-18.921 18.916-18.921h327.03c10.448 0 18.916 8.473 18.916 18.921l.001 178.753z"/><path d="M96.128 129.945h30.162c9.155 0 16.578-7.412 16.578-16.567V16.573C142.868 7.417 135.445 0 126.29 0H96.128C86.972 0 79.55 7.417 79.55 16.573v96.805c0 9.155 7.422 16.567 16.578 16.567zM361.035 129.945h30.162c9.149 0 16.572-7.412 16.572-16.567V16.573C407.77 7.417 400.347 0 391.197 0h-30.162c-9.154 0-16.577 7.417-16.577 16.573v96.805c0 9.155 7.423 16.567 16.577 16.567z"/></symbol><symbol id="call-answer" viewbox="0 0 348.077 348.077"><path d="M340.273 275.083l-53.755-53.761c-10.707-10.664-28.438-10.34-39.518.744l-27.082 27.076a792.327 792.327 0 0 1-5.344-2.973c-17.102-9.476-40.509-22.464-65.14-47.113-24.704-24.701-37.704-48.144-47.209-65.257-1.003-1.813-1.964-3.561-2.913-5.221l18.176-18.149 8.936-8.947c11.097-11.1 11.403-28.826.721-39.521L73.39 8.194c-10.682-10.68-28.421-10.356-39.518.744l-15.15 15.237.414.411c-5.08 6.482-9.325 13.958-12.484 22.02C3.74 54.28 1.927 61.603 1.098 68.941-6 127.785 20.89 181.564 93.866 254.541c100.875 100.868 182.167 93.248 185.674 92.876 7.638-.913 14.958-2.738 22.397-5.627 7.992-3.122 15.463-7.361 21.941-12.43l.331.294 15.348-15.029c11.074-11.098 11.393-28.83.716-39.542z"/></symbol><symbol id="envelope" viewbox="0 0 511.626 511.626"><path d="M49.106 178.729c6.472 4.567 25.981 18.131 58.528 40.685 32.548 22.554 57.482 39.92 74.803 52.099 1.903 1.335 5.946 4.237 12.131 8.71 6.186 4.476 11.326 8.093 15.416 10.852 4.093 2.758 9.041 5.852 14.849 9.277 5.806 3.422 11.279 5.996 16.418 7.7 5.14 1.718 9.898 2.569 14.275 2.569h.575c4.377 0 9.137-.852 14.277-2.569 5.137-1.704 10.615-4.281 16.416-7.7 5.804-3.429 10.752-6.52 14.845-9.277 4.093-2.759 9.229-6.376 15.417-10.852 6.184-4.477 10.232-7.375 12.135-8.71 17.508-12.179 62.051-43.11 133.615-92.79 13.894-9.703 25.502-21.411 34.827-35.116 9.332-13.699 13.993-28.07 13.993-43.105 0-12.564-4.523-23.319-13.565-32.264-9.041-8.947-19.749-13.418-32.117-13.418H45.679c-14.655 0-25.933 4.948-33.832 14.844C3.949 79.562 0 91.934 0 106.779c0 11.991 5.236 24.985 15.703 38.974 10.466 13.99 21.604 24.983 33.403 32.976z"/><path d="M483.072 209.275c-62.424 42.251-109.824 75.087-142.177 98.501-10.849 7.991-19.65 14.229-26.409 18.699-6.759 4.473-15.748 9.041-26.98 13.702-11.228 4.668-21.692 6.995-31.401 6.995h-.578c-9.707 0-20.177-2.327-31.405-6.995-11.228-4.661-20.223-9.229-26.98-13.702-6.755-4.47-15.559-10.708-26.407-18.699-25.697-18.842-72.995-51.68-141.896-98.501C17.987 202.047 8.375 193.762 0 184.437v226.685c0 12.57 4.471 23.319 13.418 32.265 8.945 8.949 19.701 13.422 32.264 13.422h420.266c12.56 0 23.315-4.473 32.261-13.422 8.949-8.949 13.418-19.694 13.418-32.265V184.437c-8.186 9.132-17.7 17.417-28.555 24.838z"/></symbol><symbol id="facebook-logo" viewbox="0 0 470.513 470.513"><path d="M271.521 154.17v-40.541c0-6.086.28-10.8.849-14.13.567-3.335 1.857-6.615 3.859-9.853 1.999-3.236 5.236-5.47 9.706-6.708 4.476-1.24 10.424-1.858 17.85-1.858h40.539V0h-64.809c-37.5 0-64.433 8.897-80.803 26.691-16.368 17.798-24.551 44.014-24.551 78.658v48.82h-48.542v81.086h48.539v235.256h97.362V235.256h64.805l8.566-81.086h-73.37z"/></symbol><symbol id="icon" viewbox="0 0 32 32"><path d="M16 0C7.164 0 0 7.164 0 16s7.164 16 16 16 16-7.164 16-16S24.836 0 16 0zm0 4c5.207 0 9.605 3.354 11.266 8H4.734C6.395 7.354 10.793 4 16 4zm0 14a2 2 0 1 1-.001-3.999A2 2 0 0 1 16 18zM4 16c5.465 0 9.891 5.266 9.984 11.797C8.328 26.828 4 21.926 4 16zm14.016 11.797C18.109 21.266 22.535 16 28 16c0 5.926-4.328 10.828-9.984 11.797z" fill="#030104"/></symbol><symbol id="instagram" viewbox="0 0 551.034 551.034"><lineargradient id="a" gradientunits="userSpaceOnUse" x1="275.517" y1="4.57" x2="275.517" y2="549.72" gradienttransform="matrix(1 0 0 -1 0 554)"><stop offset="0" stop-color="#e09b3d"/><stop offset=".3" stop-color="#c74c4d"/><stop offset=".6" stop-color="#c21975"/><stop offset="1" stop-color="#7024c4"/></lineargradient><path d="M386.878 0H164.156C73.64 0 0 73.64 0 164.156v222.722c0 90.516 73.64 164.156 164.156 164.156h222.722c90.516 0 164.156-73.64 164.156-164.156V164.156C551.033 73.64 477.393 0 386.878 0zM495.6 386.878c0 60.045-48.677 108.722-108.722 108.722H164.156c-60.045 0-108.722-48.677-108.722-108.722V164.156c0-60.046 48.677-108.722 108.722-108.722h222.722c60.045 0 108.722 48.676 108.722 108.722v222.722z" fill="url(#a)"/><lineargradient id="b" gradientunits="userSpaceOnUse" x1="275.517" y1="4.57" x2="275.517" y2="549.72" gradienttransform="matrix(1 0 0 -1 0 554)"><stop offset="0" stop-color="#e09b3d"/><stop offset=".3" stop-color="#c74c4d"/><stop offset=".6" stop-color="#c21975"/><stop offset="1" stop-color="#7024c4"/></lineargradient><path d="M275.517 133C196.933 133 133 196.933 133 275.516s63.933 142.517 142.517 142.517S418.034 354.1 418.034 275.516 354.101 133 275.517 133zm0 229.6c-48.095 0-87.083-38.988-87.083-87.083s38.989-87.083 87.083-87.083c48.095 0 87.083 38.988 87.083 87.083 0 48.094-38.989 87.083-87.083 87.083z" fill="url(#b)"/><lineargradient id="c" gradientunits="userSpaceOnUse" x1="418.31" y1="4.57" x2="418.31" y2="549.72" gradienttransform="matrix(1 0 0 -1 0 554)"><stop offset="0" stop-color="#e09b3d"/><stop offset=".3" stop-color="#c74c4d"/><stop offset=".6" stop-color="#c21975"/><stop offset="1" stop-color="#7024c4"/></lineargradient><circle cx="418.31" cy="134.07" r="34.15" fill="url(#c)"/></symbol><symbol id="map-pin-marked" viewbox="0 0 47.825 47.825"><path d="M36.439 12.646c0-6.919-5.608-12.527-12.528-12.527S11.384 5.727 11.384 12.646c0 9.913 12.527 24.582 12.527 24.582s12.528-14.72 12.528-24.582zm-18.706-.748a6.18 6.18 0 1 1 12.358 0 6.18 6.18 0 0 1-12.358 0z"/><circle cx="23.911" cy="11.898" r="3.038"/><path d="M30.994 32.87a88.912 88.912 0 0 1-2.777 3.793c7.916.476 13.104 2.185 15.034 3.456-2.261 1.491-8.979 3.587-19.338 3.587-10.358 0-17.077-2.097-19.338-3.587 1.93-1.271 7.114-2.979 15.022-3.455a87.691 87.691 0 0 1-2.781-3.792C7.075 33.831 0 36.713 0 40.118c0 4.19 10.707 7.588 23.913 7.588 13.207 0 23.912-3.396 23.912-7.588.002-3.407-7.081-6.29-16.831-7.248z"/></symbol><symbol id="menu-button" viewbox="0 0 459 459"><path d="M0 382.5h459v-51H0v51zM0 255h459v-51H0v51zM0 76.5v51h459v-51H0z"/></symbol><symbol id="motorbike-side-view" viewbox="0 0 486.293 486.292"><path d="M80.128 219.934C35.874 219.934 0 255.809 0 300.063s35.875 80.129 80.128 80.129c44.255 0 80.13-35.875 80.13-80.129s-35.875-80.129-80.13-80.129zm0 124.646c-24.546 0-44.516-19.97-44.516-44.517s19.97-44.517 44.516-44.517c24.547 0 44.517 19.97 44.517 44.517s-19.97 44.517-44.517 44.517zM406.162 219.934a79.986 79.986 0 0 0-25.834 4.281l-22.039-34.332c4.744-3.493 9.6-6.639 14.439-9.18v-39.416l-35.395 15.954-32.83-51.138-64.153-.002-11.788 9.813 53.814 17.525 24.184 37.672-63.847 29.902-62.425-41.176-100.16-15.952v25.598l73.591 56.386 45.561 94.606h88.359l22.822-82.911s9.184-11.88 22.484-25.354l18.709 29.142c-15.754 14.631-25.621 35.514-25.621 58.711 0 44.254 35.875 80.129 80.129 80.129 44.256 0 80.131-35.875 80.131-80.129s-35.875-80.129-80.131-80.129zm0 124.646c-24.545 0-44.516-19.97-44.516-44.517 0-10.533 3.684-20.217 9.822-27.847l23.666 36.863 28.096-18.035-22.562-35.147a44.498 44.498 0 0 1 5.494-.351c24.547 0 44.518 19.97 44.518 44.517s-19.971 44.517-44.518 44.517z"/></symbol><symbol id="navigation" viewbox="0 0 49.636 49.636"><path fill="#1081e0" d="M23.001 27.245L0 23.39 49.636.61l-24 48.416z"/></symbol><symbol id="sports-car" viewbox="0 0 39.055 39.054"><path d="M38.831 14.26a1.005 1.005 0 0 0-.775-.369h-3.801c-.938-2.474-2.16-4.898-3.549-5.813-4.805-3.161-17.55-3.161-22.355 0-1.39.916-2.607 3.343-3.55 5.813H1a.997.997 0 0 0-.775.369.995.995 0 0 0-.204.834l.563 2.728a1 1 0 0 0 .979.797h1.126c-1.087 1.254-1.614 2.833-1.621 4.413-.007 1.952.734 3.716 2.089 4.964.015.013.03.022.044.035v3.817c0 .827.672 1.5 1.5 1.5h3.506c.828 0 1.5-.673 1.5-1.5v-1.534h19.641v1.534c0 .827.672 1.5 1.5 1.5h3.506c.826 0 1.5-.673 1.5-1.5v-3.742c1.438-1.317 2.125-3.129 2.134-4.938.006-1.634-.545-3.271-1.696-4.551h1.201a.996.996 0 0 0 .979-.798l.564-2.727a1.008 1.008 0 0 0-.205-.832zM9.998 10.583c3.83-2.521 15.229-2.521 19.057 0 .744.488 1.701 2.461 2.578 4.877H7.422c.875-2.415 1.832-4.387 2.576-4.877zM5.512 23.408a2.95 2.95 0 1 1 5.901.001 2.95 2.95 0 0 1-5.901-.001zm25.119 2.951a2.951 2.951 0 1 1 0-5.903 2.951 2.951 0 0 1 0 5.903z"/></symbol></svg>